<?xml version="1.0" encoding="UTF-8"?>
<svg version="1.1" xmlns="http://www.w3.org/2000/svg" width="250" height="264">
<path d="M0 0 C82.5 0 165 0 250 0 C250 87.12 250 174.24 250 264 C167.5 264 85 264 0 264 C0 176.88 0 89.76 0 0 Z " fill="#FEFEFE" transform="translate(0,0)"/>
<path d="M0 0 C5.502612 5.34976167 6.53367202 9.14122286 6.75 16.75 C6.809435 24.00849972 4.58812731 27.54172436 -0.125 32.875 C-4.44682869 36.68232527 -8.10993098 38.0594862 -13.75 39.1875 C-14.08 53.0475 -14.41 66.9075 -14.75 81.1875 C-8.315 77.2275 -8.315 77.2275 -1.75 73.1875 C2.34410963 70.83205441 6.44140047 68.49402537 10.5625 66.1875 C11.60083984 65.60355469 12.63917969 65.01960938 13.70898438 64.41796875 C16.22135978 63.0054812 18.73502186 61.59534628 21.25 60.1875 C21.91 60.8475 22.57 61.5075 23.25 62.1875 C22.57533691 62.58018066 21.90067383 62.97286133 21.20556641 63.37744141 C18.09498043 65.18844638 14.98498747 67.00046744 11.875 68.8125 C10.28365234 69.73869141 10.28365234 69.73869141 8.66015625 70.68359375 C7.08427734 71.60205078 7.08427734 71.60205078 5.4765625 72.5390625 C4.4340332 73.1465332 3.39150391 73.75400391 2.31738281 74.37988281 C-1.42183867 76.58341639 -5.12214454 78.847601 -8.81103516 81.13427734 C-10.75 82.1875 -10.75 82.1875 -12.75 82.1875 C-12.75 82.8475 -12.75 83.5075 -12.75 84.1875 C-11.66960449 84.59802612 -11.66960449 84.59802612 -10.56738281 85.0168457 C-7.81091311 86.16218992 -5.27794328 87.46514658 -2.671875 88.91796875 C-1.68703125 89.46678711 -0.7021875 90.01560547 0.3125 90.58105469 C1.364375 91.17305664 2.41625 91.76505859 3.5 92.375 C4.58796875 92.98633789 5.6759375 93.59767578 6.796875 94.22753906 C15.00629105 98.86651814 23.15002893 103.61011968 31.25 108.4375 C32.33571289 109.08098389 33.42142578 109.72446777 34.54003906 110.38745117 C35.53745117 110.98662354 36.53486328 111.5857959 37.5625 112.203125 C38.88701172 112.99638184 38.88701172 112.99638184 40.23828125 113.80566406 C42.25 115.1875 42.25 115.1875 43.25 117.1875 C39.24837244 116.59728811 36.39707221 115.34193329 32.91796875 113.30078125 C31.88293213 112.69838623 30.84789551 112.09599121 29.78149414 111.4753418 C28.67797607 110.823479 27.57445801 110.17161621 26.4375 109.5 C24.70004837 108.48496053 22.96259507 107.46992387 21.22502136 106.45509338 C19.43011457 105.40517255 17.63719855 104.35192305 15.84472656 103.29785156 C12.33787306 101.23677067 8.82222561 99.19123448 5.3046875 97.1484375 C-3.15753644 92.23092087 -3.15753644 92.23092087 -7.12109375 89.91796875 C-7.94536865 89.43739014 -8.76964355 88.95681152 -9.61889648 88.46166992 C-11.36029285 87.42050282 -13.06184188 86.31293875 -14.75 85.1875 C-14.75 99.0475 -14.75 112.9075 -14.75 127.1875 C-15.41 127.1875 -16.07 127.1875 -16.75 127.1875 C-16.75 113.3275 -16.75 99.4675 -16.75 85.1875 C-25.165 90.1375 -25.165 90.1375 -33.75 95.1875 C-37.64733473 97.45552408 -41.54837094 99.71625771 -45.45507812 101.96801758 C-49.67264526 104.40080251 -53.87927205 106.84986484 -58.0703125 109.328125 C-58.93736816 109.83802979 -59.80442383 110.34793457 -60.69775391 110.87329102 C-62.36716864 111.85555331 -64.0336474 112.84282702 -65.69677734 113.83569336 C-66.44652832 114.27534424 -67.1962793 114.71499512 -67.96875 115.16796875 C-68.62810547 115.55879639 -69.28746094 115.94962402 -69.96679688 116.35229492 C-71.75 117.1875 -71.75 117.1875 -74.75 117.1875 C-74.75 116.5275 -74.75 115.8675 -74.75 115.1875 C-74.0379541 114.78136475 -73.3259082 114.37522949 -72.59228516 113.95678711 C-69.81635226 112.37304481 -67.04073893 110.78874407 -64.26531982 109.20410156 C-63.00733312 108.48597154 -61.74923615 107.76803464 -60.49102783 107.05029297 C-53.36959042 102.98755782 -46.25736275 98.91032341 -39.171875 94.78515625 C-37.97446261 94.08924657 -36.77703454 93.39336387 -35.57958984 92.69750977 C-33.30176613 91.37218661 -31.02599684 90.04332535 -28.75244141 88.71069336 C-27.72812012 88.11522705 -26.70379883 87.51976074 -25.6484375 86.90625 C-24.74786621 86.37966797 -23.84729492 85.85308594 -22.91943359 85.31054688 C-20.75 84.1875 -20.75 84.1875 -18.75 84.1875 C-18.75 83.5275 -18.75 82.8675 -18.75 82.1875 C-19.44077637 81.93154053 -20.13155273 81.67558105 -20.84326172 81.41186523 C-26.1054038 79.19536578 -30.97692568 76.20036319 -35.92529297 73.36547852 C-37.8726407 72.25134982 -39.82476225 71.14594011 -41.77734375 70.04101562 C-43.02113244 69.33125307 -44.26463213 68.62098376 -45.5078125 67.91015625 C-46.6333252 67.26828369 -47.75883789 66.62641113 -48.91845703 65.96508789 C-51.23955306 64.50794871 -52.96016173 63.23128584 -54.75 61.1875 C-50.0893291 61.1875 -48.39906769 62.26327029 -44.41015625 64.58203125 C-43.5041996 65.1040638 -43.5041996 65.1040638 -42.5799408 65.63664246 C-40.65268761 66.74974997 -38.73264326 67.87468099 -36.8125 69 C-35.52454044 69.74622321 -34.23613329 70.49167448 -32.94726562 71.23632812 C-27.85826544 74.18210307 -22.79225024 77.16214985 -17.75 80.1875 C-17.75 66.6575 -17.75 53.1275 -17.75 39.1875 C-20.39 38.5275 -23.03 37.8675 -25.75 37.1875 C-31.44775553 33.74277852 -35.98003003 28.66273177 -37.75 22.1875 C-38.72349142 15.31743196 -38.50233128 9.62922038 -34.3046875 3.9375 C-23.86717643 -7.81125618 -12.73987348 -8.39673479 0 0 Z " fill="#EC6763" transform="translate(140.75,48.8125)"/>
<path d="M0 0 C0.66 0 1.32 0 2 0 C2 13.86 2 27.72 2 42 C2.66 42 3.32 42 4 42 C4 28.14 4 14.28 4 0 C4.66 0.33 5.32 0.66 6 1 C5.67 14.53 5.34 28.06 5 42 C6.98 42.33 8.96 42.66 11 43 C17.05056971 45.64780808 20.59988179 49.4361702 24 55 C26.16439624 61.49318872 25.81463224 68.07875075 23 74.3125 C20.07462618 79.54650217 15.89508691 83.7016377 10.11328125 85.62890625 C3.803859 86.73684546 -2.7798482 87.23726164 -8.4375 83.875 C-13.45614846 80.18144167 -17.00998114 75.97878472 -19 70 C-19.87022832 62.66377291 -19.59791578 56.00544102 -15 50 C-11.77400389 46.64676043 -8.35409862 43.73839012 -4 42 C-2.35 42 -0.7 42 1 42 C0.505 21.21 0.505 21.21 0 0 Z " fill="#91C7B1" transform="translate(122,134)"/>
<path d="M0 0 C6.95445493 3.5594592 12.02946286 8.64240893 14.5 16.12109375 C15.40802515 23.18468475 14.83121419 29.32920615 10.5 35.12109375 C5.46706486 40.48305855 0.06905567 44.22395276 -7.4375 44.49609375 C-15.42595184 44.2090835 -21.04221129 40.72027595 -26.5 35.12109375 C-30.65493979 29.30417804 -31.40512362 23.1358018 -30.5 16.12109375 C-27.76187 8.6384454 -23.26895687 4.66294838 -16.8125 0.30859375 C-11.21898947 -1.696627 -5.65949116 -1.98966486 0 0 Z " fill="#9A90F2" transform="translate(75.5,76.87890625)"/>
<path d="M0 0 C5.59786251 3.3875477 9.46136951 8.24747652 11.5 14.4375 C12.41964244 21.59146267 11.68542939 27.49121035 7.5 33.4375 C2.95601541 38.54948266 -0.88798611 42.02963483 -7.796875 42.640625 C-16.56585885 42.8081852 -22.31461981 40.82629239 -29.0546875 35.23046875 C-33.41724827 29.81853525 -33.04117872 22.74756949 -32.9375 16.14453125 C-32.1728945 9.66586497 -29.33786541 6.21624322 -24.8125 1.78515625 C-18.07535691 -3.45645724 -7.62731206 -3.3736188 0 0 Z " fill="#F5AF6F" transform="translate(193.5,78.5625)"/>
<path d="M0 0 C4.34298055 5.30808733 7.05812845 10.38437091 6.6953125 17.38671875 C5.35108895 24.52053673 1.66775735 30.07144215 -3.90625 34.59375 C-9.66648272 38.20609933 -15.12268906 38.3594079 -21.75 37.75 C-28.41165687 36.15915657 -33.15006684 31.40703782 -36.75 25.75 C-39.78573529 19.03942726 -39.32132579 11.80211016 -37.75 4.75 C-35.3532896 6.01920136 -32.95761907 7.29030187 -30.5625 8.5625 C-29.88896484 8.91892578 -29.21542969 9.27535156 -28.52148438 9.64257812 C-24.86837273 11.58496432 -21.27521488 13.58011045 -17.75 15.75 C-17.42 15.42 -17.09 15.09 -16.75 14.75 C-23.02 11.12 -29.29 7.49 -35.75 3.75 C-25.78297458 -8.2104305 -12.19837108 -9.98048543 0 0 Z " fill="#F9D863" transform="translate(198.75,149.25)"/>
<path d="M0 0 C2.48141633 1.85751737 4.77110284 3.84772118 7 6 C3.15651589 9.25048942 -0.82398529 11.78782869 -5.1875 14.25 C-5.81591797 14.61351562 -6.44433594 14.97703125 -7.09179688 15.3515625 C-11.74647556 18 -11.74647556 18 -14 18 C-14 18.66 -14 19.32 -14 20 C-13.24976562 19.62488281 -12.49953125 19.24976563 -11.7265625 18.86328125 C-5.15104167 15.57552083 1.42447917 12.28776042 8 9 C10.51836063 14.67134814 11.20392346 20.25156804 9.27734375 26.25 C6.25253563 32.71598658 1.79135696 37.25876878 -4.69140625 40.2734375 C-10.26739439 42.02831702 -16.42475615 41.8992247 -21.875 39.75 C-28.89755366 35.81736995 -32.35975871 31.63094128 -35 24 C-36.40077865 16.65113889 -34.92558374 11.32477464 -30.78515625 5.16796875 C-23.11846509 -4.14278309 -10.46605011 -5.89119934 0 0 Z " fill="#4DB5D7" transform="translate(80,146)"/>
<path d="M0 0 C0.66 0 1.32 0 2 0 C2 21.78 2 43.56 2 66 C8.435 62.04 8.435 62.04 15 58 C19.09410963 55.64455441 23.19140047 53.30652537 27.3125 51 C28.35083984 50.41605469 29.38917969 49.83210938 30.45898438 49.23046875 C32.97135978 47.8179812 35.48502186 46.40784628 38 45 C38.66 45.66 39.32 46.32 40 47 C39.32533691 47.39268066 38.65067383 47.78536133 37.95556641 48.18994141 C34.84498043 50.00094638 31.73498747 51.81296744 28.625 53.625 C27.03365234 54.55119141 27.03365234 54.55119141 25.41015625 55.49609375 C23.83427734 56.41455078 23.83427734 56.41455078 22.2265625 57.3515625 C21.1840332 57.9590332 20.14150391 58.56650391 19.06738281 59.19238281 C15.32816133 61.39591639 11.62785546 63.660101 7.93896484 65.94677734 C6 67 6 67 4 67 C4 67.66 4 68.32 4 69 C5.08039551 69.41052612 5.08039551 69.41052612 6.18261719 69.8293457 C8.93908689 70.97468992 11.47205672 72.27764658 14.078125 73.73046875 C15.06296875 74.27928711 16.0478125 74.82810547 17.0625 75.39355469 C18.114375 75.98555664 19.16625 76.57755859 20.25 77.1875 C21.33796875 77.79883789 22.4259375 78.41017578 23.546875 79.04003906 C31.75629105 83.67901814 39.90002893 88.42261968 48 93.25 C49.08571289 93.89348389 50.17142578 94.53696777 51.29003906 95.19995117 C52.28745117 95.79912354 53.28486328 96.3982959 54.3125 97.015625 C55.63701172 97.80888184 55.63701172 97.80888184 56.98828125 98.61816406 C59 100 59 100 60 102 C55.99837244 101.40978811 53.14707221 100.15443329 49.66796875 98.11328125 C48.63293213 97.51088623 47.59789551 96.90849121 46.53149414 96.2878418 C45.42797607 95.635979 44.32445801 94.98411621 43.1875 94.3125 C41.45004837 93.29746053 39.71259507 92.28242387 37.97502136 91.26759338 C36.18011457 90.21767255 34.38719855 89.16442305 32.59472656 88.11035156 C29.08787306 86.04927067 25.57222561 84.00373448 22.0546875 81.9609375 C13.59246356 77.04342087 13.59246356 77.04342087 9.62890625 74.73046875 C8.80463135 74.24989014 7.98035645 73.76931152 7.13110352 73.27416992 C5.38970715 72.23300282 3.68815812 71.12543875 2 70 C2 83.86 2 97.72 2 112 C1.34 112 0.68 112 0 112 C0 98.14 0 84.28 0 70 C-8.415 74.95 -8.415 74.95 -17 80 C-20.89733473 82.26802408 -24.79837094 84.52875771 -28.70507812 86.78051758 C-32.92264526 89.21330251 -37.12927205 91.66236484 -41.3203125 94.140625 C-42.18736816 94.65052979 -43.05442383 95.16043457 -43.94775391 95.68579102 C-45.61716864 96.66805331 -47.2836474 97.65532702 -48.94677734 98.64819336 C-49.69652832 99.08784424 -50.4462793 99.52749512 -51.21875 99.98046875 C-51.87810547 100.37129639 -52.53746094 100.76212402 -53.21679688 101.16479492 C-55 102 -55 102 -58 102 C-58 101.34 -58 100.68 -58 100 C-57.2879541 99.59386475 -56.5759082 99.18772949 -55.84228516 98.76928711 C-53.06635226 97.18554481 -50.29073893 95.60124407 -47.51531982 94.01660156 C-46.25733312 93.29847154 -44.99923615 92.58053464 -43.74102783 91.86279297 C-36.61959042 87.80005782 -29.50736275 83.72282341 -22.421875 79.59765625 C-21.22446261 78.90174657 -20.02703454 78.20586387 -18.82958984 77.51000977 C-16.55176613 76.18468661 -14.27599684 74.85582535 -12.00244141 73.52319336 C-10.97812012 72.92772705 -9.95379883 72.33226074 -8.8984375 71.71875 C-7.99786621 71.19216797 -7.09729492 70.66558594 -6.16943359 70.12304688 C-4 69 -4 69 -2 69 C-2 68.34 -2 67.68 -2 67 C-2.69077637 66.74404053 -3.38155273 66.48808105 -4.09326172 66.22436523 C-9.3554038 64.00786578 -14.22692568 61.01286319 -19.17529297 58.17797852 C-21.1226407 57.06384982 -23.07476225 55.95844011 -25.02734375 54.85351562 C-26.27113244 54.14375307 -27.51463213 53.43348376 -28.7578125 52.72265625 C-29.8833252 52.08078369 -31.00883789 51.43891113 -32.16845703 50.77758789 C-34.48955306 49.32044871 -36.21016173 48.04378584 -38 46 C-33.3393291 46 -31.64906769 47.07577029 -27.66015625 49.39453125 C-27.05618515 49.74255295 -26.45221405 50.09057465 -25.8299408 50.44914246 C-23.90268761 51.56224997 -21.98264326 52.68718099 -20.0625 53.8125 C-18.77454044 54.55872321 -17.48613329 55.30417448 -16.19726562 56.04882812 C-11.10826544 58.99460307 -6.04225024 61.97464985 -1 65 C-0.67 43.55 -0.34 22.1 0 0 Z " fill="#010101" transform="translate(124,64)"/>
<path d="M0 0 C-3.37747091 2.82395694 -6.75146156 5.119484 -10.60546875 7.2421875 C-11.67216797 7.83386719 -12.73886719 8.42554688 -13.83789062 9.03515625 C-15.49594727 9.94587891 -15.49594727 9.94587891 -17.1875 10.875 C-24.87710179 15.11911256 -32.50086257 19.42684357 -40 24 C-42.14150624 25.2993028 -44.28730157 26.59002086 -46.4375 27.875 C-47.42621094 28.47054687 -48.41492188 29.06609375 -49.43359375 29.6796875 C-52 31 -52 31 -55 31 C-55 30.34 -55 29.68 -55 29 C-54.27748047 28.58862793 -53.55496094 28.17725586 -52.81054688 27.75341797 C-50.00691003 26.15633678 -47.20394726 24.55807931 -44.40133667 22.959198 C-43.13624234 22.23780407 -41.8708827 21.51687523 -40.60525513 20.79641724 C-33.67040018 16.84841386 -26.75407996 12.87604402 -19.90234375 8.78515625 C-18.81050781 8.13627441 -17.71867187 7.48739258 -16.59375 6.81884766 C-14.51702007 5.58097012 -12.44523206 4.33475742 -10.37890625 3.07958984 C-9.44820312 2.52609863 -8.5175 1.97260742 -7.55859375 1.40234375 C-6.74704834 0.91241943 -5.93550293 0.42249512 -5.09936523 -0.08227539 C-3 -1 -3 -1 0 0 Z " fill="#161616" transform="translate(121,135)"/>
<path d="M0 0 C3.80560234 0.58066603 6.526577 1.66421734 9.82421875 3.6328125 C10.75862793 4.18477295 11.69303711 4.7367334 12.65576172 5.30541992 C14.15647217 6.20611206 14.15647217 6.20611206 15.6875 7.125 C17.82882326 8.39554946 19.97077405 9.66504177 22.11328125 10.93359375 C23.79091553 11.92915283 23.79091553 11.92915283 25.50244141 12.94482422 C29.07764883 15.05500351 32.68224774 17.11150567 36.29296875 19.16015625 C37.48806036 19.84029117 38.68312899 20.52046649 39.87817383 21.20068359 C42.18057692 22.51071496 44.48685808 23.81298465 46.7956543 25.11181641 C47.84019775 25.70784668 48.88474121 26.30387695 49.9609375 26.91796875 C50.88696777 27.44156982 51.81299805 27.9651709 52.76708984 28.50463867 C55 30 55 30 57 33 C52.99837244 32.40978811 50.14707221 31.15443329 46.66796875 29.11328125 C45.11529297 28.20980957 45.11529297 28.20980957 43.53125 27.28808594 C41.87609375 26.3101709 41.87609375 26.3101709 40.1875 25.3125 C38.45113807 24.29634482 36.71477298 23.28019496 34.97817993 22.26443481 C33.7858091 21.56616979 32.59406267 20.86683751 31.40292358 20.16647339 C27.29055553 17.74867343 23.16042091 15.36474597 19.01953125 12.99609375 C17.92294189 12.36598389 16.82635254 11.73587402 15.6965332 11.08666992 C13.59737469 9.88053157 11.49571854 8.67872767 9.39135742 7.48168945 C8.44752197 6.93601318 7.50368652 6.39033691 6.53125 5.828125 C5.70173828 5.3527832 4.87222656 4.87744141 4.01757812 4.38769531 C2 3 2 3 0 0 Z " fill="#141414" transform="translate(127,133)"/>
<path d="M0 0 C3.90630666 1.45095237 7.3984872 3.27968401 11 5.37109375 C12.134375 6.02787109 13.26875 6.68464844 14.4375 7.36132812 C15.62502495 8.0533426 16.81252474 8.74540027 18 9.4375 C19.18732732 10.12594893 20.37482583 10.81410273 21.5625 11.50195312 C24.71176955 13.32888734 27.85928295 15.15840258 31 17 C31.93199219 17.52215088 32.86398438 18.04430176 33.82421875 18.58227539 C36 20 36 20 36.8125 22.1875 C36.874375 22.785625 36.93625 23.38375 37 24 C36.34 24 35.68 24 35 24 C35 23.34 35 22.68 35 22 C34.30922363 21.74404053 33.61844727 21.48808105 32.90673828 21.22436523 C27.6445962 19.00786578 22.77307432 16.01286319 17.82470703 13.17797852 C15.8773593 12.06384982 13.92523775 10.95844011 11.97265625 9.85351562 C10.72886756 9.14375307 9.48536787 8.43348376 8.2421875 7.72265625 C7.1166748 7.08078369 5.99116211 6.43891113 4.83154297 5.77758789 C2.51044694 4.32044871 0.78983827 3.04378584 -1 1 C-0.67 0.67 -0.34 0.34 0 0 Z " fill="#151515" transform="translate(87,109)"/>
<path d="M0 0 C0.66 0.66 1.32 1.32 2 2 C-1.7692625 4.21102244 -5.54070054 6.41830862 -9.3125 8.625 C-10.36501953 9.24246094 -11.41753906 9.85992187 -12.50195312 10.49609375 C-19.27098047 14.45337127 -26.09293673 18.28881916 -33 22 C-32.86425781 20.22290039 -32.86425781 20.22290039 -32 18 C-29.48730469 16.21655273 -29.48730469 16.21655273 -26.171875 14.43359375 C-25.5858551 14.11342789 -24.99983521 13.79326202 -24.39605713 13.46339417 C-22.52054523 12.44217311 -20.63579438 11.4395839 -18.75 10.4375 C-17.49542256 9.75970442 -16.24150773 9.08068084 -14.98828125 8.40039062 C-12.67294255 7.1437068 -10.35364112 5.89598783 -8.03027344 4.65405273 C-5.30803162 3.16813682 -2.6456726 1.61744847 0 0 Z " fill="#171615" transform="translate(162,109)"/>
<path d="M0 0 C0 0.99 0 1.98 0 3 C-2.93169446 4.67703806 -5.87124524 6.33979518 -8.8125 8 C-9.64587891 8.47695312 -10.47925781 8.95390625 -11.33789062 9.4453125 C-12.14033203 9.89648438 -12.94277344 10.34765625 -13.76953125 10.8125 C-14.87711792 11.44091797 -14.87711792 11.44091797 -16.00708008 12.08203125 C-18 13 -18 13 -21 13 C-21 12.34 -21 11.68 -21 11 C-19.28759766 9.76318359 -19.28759766 9.76318359 -16.9140625 8.3984375 C-16.06585938 7.90859375 -15.21765625 7.41875 -14.34375 6.9140625 C-12.99796875 6.15222656 -12.99796875 6.15222656 -11.625 5.375 C-10.73554687 4.859375 -9.84609375 4.34375 -8.9296875 3.8125 C-2.27294147 0 -2.27294147 0 0 0 Z " fill="#081518" transform="translate(87,153)"/>
<path d="M0 0 C4.71085387 1.37250978 8.6834536 3.40110192 12.8125 6 C13.39708984 6.35578125 13.98167969 6.7115625 14.58398438 7.078125 C18.87008929 9.74017857 18.87008929 9.74017857 20 12 C15.01082568 11.44780012 11.38056063 9.12648636 7.1875 6.5625 C6.49462891 6.15451172 5.80175781 5.74652344 5.08789062 5.32617188 C3.35344547 4.27866953 1.67122086 3.14567971 0 2 C0 1.34 0 0.68 0 0 Z " fill="#120F07" transform="translate(164,154)"/>
<path d="M0 0 C4.30764815 1.56641751 8.06171464 3.68336156 12 6 C11.67 6.99 11.34 7.98 11 9 C7.04 6.69 3.08 4.38 -1 2 C-0.67 1.34 -0.34 0.68 0 0 Z " fill="#1C1C1F" transform="translate(87,109)"/>
<path d="M0 0 C1.2065625 0.0309375 1.2065625 0.0309375 2.4375 0.0625 C1.7775 1.7125 1.1175 3.3625 0.4375 5.0625 C-1.8725 5.3925 -4.1825 5.7225 -6.5625 6.0625 C-6.5625 5.4025 -6.5625 4.7425 -6.5625 4.0625 C-5.2425 4.0625 -3.9225 4.0625 -2.5625 4.0625 C-2.8925 3.0725 -3.2225 2.0825 -3.5625 1.0625 C-2.5625 0.0625 -2.5625 0.0625 0 0 Z " fill="#070707" transform="translate(126.5625,128.9375)"/>
<path d="M0 0 C3.45925163 1.2491742 6.14693203 2.67527795 9 5 C8.34 5.66 7.68 6.32 7 7 C5.82780457 6.21654285 4.66236332 5.42297164 3.5 4.625 C2.8503125 4.18414062 2.200625 3.74328125 1.53125 3.2890625 C1.0259375 2.86367187 0.520625 2.43828125 0 2 C0 1.34 0 0.68 0 0 Z " fill="#1B1918" transform="translate(156,149)"/>
<path d="M0 0 C-2.68841859 2.25245881 -4.64641875 3.88213958 -8 5 C-8 4.01 -8 3.02 -8 2 C-4.77208445 -0.1519437 -3.71599191 -0.20086443 0 0 Z " fill="#4EA8C4" transform="translate(87,152)"/>
</svg>
