<?xml version="1.0" encoding="UTF-8"?>
<svg version="1.1" xmlns="http://www.w3.org/2000/svg" width="500" height="500">
<path d="M0 0 C165 0 330 0 500 0 C500 165 500 330 500 500 C335 500 170 500 0 500 C0 335 0 170 0 0 Z " fill="#333333" transform="translate(0,0)"/>
<path d="M0 0 C2.18002806 0.00747251 4.36006289 0.01316066 6.5401001 0.01715088 C12.24148532 0.03232766 17.94245445 0.07154013 23.64367676 0.1159668 C29.4759356 0.15709209 35.30826254 0.17519858 41.140625 0.1953125 C52.55747317 0.23804271 63.9740143 0.30619649 75.390625 0.390625 C76.03595842 1.63547481 76.67593378 2.88310294 77.3137207 4.13183594 C77.67069534 4.82629822 78.02766998 5.5207605 78.39546204 6.23626709 C79.94590412 9.59270948 80.7683677 13.04625925 81.578125 16.640625 C81.74248047 17.33414063 81.90683594 18.02765625 82.07617188 18.7421875 C82.52124242 20.62337634 82.95639091 22.50690528 83.390625 24.390625 C83.56859619 25.0105835 83.74656738 25.63054199 83.92993164 26.26928711 C88.76545285 48.53523505 82.32813511 74.25777454 71.14453125 93.67578125 C54.43580824 119.53894939 31.68407172 134.08103231 2.03662109 140.93481445 C-13.31776022 143.57982552 -30.87311774 142.52360206 -45.609375 137.390625 C-46.31594238 137.14924805 -47.02250977 136.90787109 -47.75048828 136.65917969 C-60.69470369 132.10478657 -71.24936878 125.38464521 -81.609375 116.390625 C-81.609375 116.060625 -81.609375 115.730625 -81.609375 115.390625 C-80.69055038 115.38697937 -79.77172577 115.38333374 -78.82505798 115.37957764 C-70.1028468 115.34147689 -61.38100117 115.28437738 -52.65904903 115.20672226 C-48.17657594 115.16746194 -43.69429299 115.13516963 -39.21166992 115.11962891 C-34.87364906 115.10431931 -30.53615176 115.0696265 -26.19836617 115.02231598 C-24.55569613 115.00764786 -22.91295129 114.99959251 -21.27021599 114.99874115 C-1.19143998 114.9778986 16.43392333 110.07027893 32.390625 97.390625 C33.22851562 96.76414062 34.06640625 96.13765625 34.9296875 95.4921875 C48.12708116 84.22203228 56.13887298 65.8640077 57.6171875 48.77099609 C57.95708302 41.17574739 57.66571186 33.88328545 56.390625 26.390625 C46.58485276 26.42870322 36.77946171 26.48809591 26.97398949 26.57452774 C22.4206335 26.61399793 17.86747078 26.6461886 13.31396484 26.66162109 C8.91762754 26.67679079 4.52182154 26.7112416 0.12572098 26.75893402 C-1.54950715 26.77374464 -3.22481114 26.78166583 -4.90010452 26.78250885 C-7.25119587 26.78488132 -9.60082221 26.81198078 -11.95166016 26.84472656 C-12.64074463 26.8396962 -13.3298291 26.83466583 -14.03979492 26.82948303 C-18.98863931 26.93578197 -21.77790835 28.32834219 -25.609375 31.390625 C-29.31073823 35.57900971 -30.20343706 38.78547744 -29.9296875 44.21484375 C-29.25153646 48.82130873 -27.48287305 51.58263931 -24.109375 54.703125 C-20.78636753 56.94615504 -18.23904994 57.51552903 -14.3215332 57.59594727 C-13.46086746 57.61589249 -12.60020172 57.63583771 -11.7134552 57.65638733 C-10.78836655 57.67309982 -9.86327789 57.68981232 -8.91015625 57.70703125 C-7.48487862 57.7382029 -7.48487862 57.7382029 -6.0308075 57.77000427 C-2.99457044 57.83540552 0.04175331 57.89434104 3.078125 57.953125 C5.13607669 57.99631917 7.19401959 58.03993376 9.25195312 58.08398438 C14.29808816 58.19107731 19.34431043 58.29237146 24.390625 58.390625 C20.1839721 68.59033812 12.91940264 77.16400601 2.62890625 81.57421875 C-8.48513388 85.5249661 -20.97494749 86.52343893 -32.01953125 81.7734375 C-43.0395666 75.88943673 -50.4411827 68.51826762 -55.046875 56.828125 C-58.06822726 46.67847413 -58.25380359 34.75000967 -53.9921875 24.9453125 C-47.58472507 13.10779717 -39.40967061 5.32899938 -26.49206543 1.20007324 C-17.80266295 -0.61145969 -8.83559295 -0.08941099 0 0 Z " fill="#86CDE9" transform="translate(264.609375,169.609375)"/>
<path d="M0 0 C2.03626956 0.0031638 4.07108613 -0.02039627 6.10717773 -0.0456543 C14.12141516 -0.04957324 21.02064069 0.73112578 28.60522461 3.31567383 C30.39186523 3.86288086 30.39186523 3.86288086 32.21459961 4.42114258 C45.81551443 9.1070299 58.10539346 15.33974278 68.60522461 25.31567383 C68.60522461 25.64567383 68.60522461 25.97567383 68.60522461 26.31567383 C67.67609253 26.31931946 66.74696045 26.32296509 65.78967285 26.32672119 C56.96476293 26.36483972 48.14021366 26.42195863 39.31555939 26.49957657 C34.78042816 26.5388182 30.24548433 26.57111945 25.71020508 26.58666992 C21.32031235 26.60199211 16.93093568 26.63670615 12.54127502 26.68398285 C10.87989326 26.6986383 9.21843776 26.70670556 7.55699158 26.70755768 C-14.93536314 26.73066073 -34.29112213 32.56112089 -50.76196289 48.62426758 C-65.04905761 63.65698509 -70.8630294 81.70821083 -70.60961914 102.05395508 C-70.18834865 116.55246315 -65.53445353 128.82123709 -58.39477539 141.31567383 C-68.62477539 141.31567383 -78.85477539 141.31567383 -89.39477539 141.31567383 C-91.09633789 136.33473633 -91.09633789 136.33473633 -92.83227539 131.25317383 C-93.18862061 130.2205542 -93.54496582 129.18793457 -93.91210938 128.12402344 C-100.11994877 109.72062882 -99.92134727 86.65832682 -93.39477539 68.31567383 C-93.02094727 67.18645508 -92.64711914 66.05723633 -92.26196289 64.89379883 C-83.13012116 39.1311195 -63.66127673 19.7213276 -39.36352539 8.10864258 C-34.18372374 5.71633975 -28.91994627 3.75022976 -23.39477539 2.31567383 C-22.72406006 2.13979736 -22.05334473 1.9639209 -21.36230469 1.78271484 C-14.26197207 0.12673143 -7.27053588 -0.02356879 0 0 Z " fill="#86CCE9" transform="translate(248.394775390625,112.684326171875)"/>
<path d="M0 0 C2.371875 -0.04125 4.74375 -0.0825 7.1875 -0.125 C7.92508545 -0.14320801 8.6626709 -0.16141602 9.42260742 -0.18017578 C12.54710146 -0.2063363 14.89049549 -0.04429053 17.80078125 1.1328125 C18.88939453 1.56207031 18.88939453 1.56207031 20 2 C20.99 1.34 21.98 0.68 23 0 C26.62734675 -0.47313219 28.46983726 -0.29874864 31.67578125 1.5078125 C34.3866615 4.4146051 34.52830386 6.12963019 34.43945312 10.0390625 C34.37661133 11.13347656 34.37661133 11.13347656 34.3125 12.25 C34.28994141 12.99507813 34.26738281 13.74015625 34.24414062 14.5078125 C34.18543561 16.339409 34.09575757 18.16996653 34 20 C32.02 20 30.04 20 28 20 C27.505 13.565 27.505 13.565 27 7 C24.525 6.505 24.525 6.505 22 6 C20.12175109 7.87824891 20.60897603 11.03935276 20.4375 13.5625 C20.35371094 14.76003906 20.26992188 15.95757812 20.18359375 17.19140625 C20.09271484 18.58166016 20.09271484 18.58166016 20 20 C18.02 20 16.04 20 14 20 C13.67 15.71 13.34 11.42 13 7 C11.35 6.67 9.7 6.34 8 6 C7.67 10.62 7.34 15.24 7 20 C4.69 20 2.38 20 0 20 C0 13.4 0 6.8 0 0 Z " fill="#82C6E1" transform="translate(353,359)"/>
<path d="M0 0 C1.98 0 3.96 0 6 0 C6 8.58 6 17.16 6 26 C3 26 0 26 -3 26 C-4.11375 26.12375 -5.2275 26.2475 -6.375 26.375 C-10 26 -10 26 -12.9375 23.5 C-15.13927506 20.39849626 -15.74922582 17.74587639 -15.48046875 13.96875 C-14.55226921 10.16539578 -13.00053754 8.55364897 -10 6 C-6.4956772 5.58423289 -4.17878694 5.41060653 -1 7 C-0.67 4.69 -0.34 2.38 0 0 Z " fill="#85CBE7" transform="translate(321,353)"/>
<path d="M0 0 C0.99 0.66 1.98 1.32 3 2 C3 1.34 3 0.68 3 0 C4.98 0 6.96 0 9 0 C9 6.6 9 13.2 9 20 C7.02 20 5.04 20 3 20 C3 19.34 3 18.68 3 18 C2.01 18.66 1.02 19.32 0 20 C-4.24648478 20.55047025 -6.29726686 20.44855307 -9.9375 18.125 C-12.82533781 13.74948817 -13.02870363 10.10170093 -12 5 C-8.68413616 -0.02403613 -5.86830956 -0.7607068 0 0 Z " fill="#84C8E4" transform="translate(294,359)"/>
<path d="M0 0 C3.22496917 1.80598274 4.562675 2.78894616 5.8125 6.25 C5.874375 6.8275 5.93625 7.405 6 8 C-0.625 8.25 -0.625 8.25 -4 6 C-7.32240324 6.3241369 -8.60776303 6.60776303 -11 9 C-11.43515942 13.66731926 -11.43515942 13.66731926 -9.9375 18 C-6.77203476 19.63378851 -4.34979714 18.85267564 -1 18 C-0.34 17.01 0.32 16.02 1 15 C-1.64 15 -4.28 15 -7 15 C-7 13.68 -7 12.36 -7 11 C-2.38 11 2.24 11 7 11 C7 18.3 7 18.3 4 22 C-0.49053604 25.02850105 -4.7087706 25.95916708 -10 25 C-14.05889277 22.89538893 -16.3129364 21.22910966 -18 17 C-18.64095668 12.9113711 -18.95574033 8.77291608 -16.94921875 5.05078125 C-12.11934096 -0.83340615 -7.21128425 -0.75963023 0 0 Z " fill="#83C7E3" transform="translate(108,354)"/>
<path d="M0 0 C2.64 0 5.28 0 8 0 C9.34117853 3.60129621 10.6715839 7.20647859 12 10.8125 C12.3815625 11.83666016 12.763125 12.86082031 13.15625 13.91601562 C13.5171875 14.89892578 13.878125 15.88183594 14.25 16.89453125 C14.75273437 18.25348511 14.75273437 18.25348511 15.265625 19.63989258 C16 22 16 22 16 25 C14.02 25 12.04 25 10 25 C9.67 23.68 9.34 22.36 9 21 C4.05 21.495 4.05 21.495 -1 22 C-1.33 22.99 -1.66 23.98 -2 25 C-4.31 25 -6.62 25 -9 25 C-7.87685891 21.77018378 -6.75115766 18.54126553 -5.625 15.3125 C-5.14933594 13.94448242 -5.14933594 13.94448242 -4.6640625 12.54882812 C-4.3546875 11.66259766 -4.0453125 10.77636719 -3.7265625 9.86328125 C-3.44377441 9.05157471 -3.16098633 8.23986816 -2.86962891 7.40356445 C-1.96803802 4.91166039 -0.99728271 2.45499672 0 0 Z " fill="#83C7E2" transform="translate(242,354)"/>
<path d="M0 0 C3.4203866 1.17013226 3.91540482 1.87310723 6 5 C6.07905064 7.33199388 6.08798769 9.66832622 6 12 C1.71 12 -2.58 12 -7 12 C-6.67 12.66 -6.34 13.32 -6 14 C-5.319375 13.835 -4.63875 13.67 -3.9375 13.5 C-0.5835178 12.92910941 2.60389805 12.93340977 6 13 C4.70312141 15.89303687 3.46171643 17.97969479 1 20 C-2.06442875 20.68863568 -4.92165492 20.59406659 -8 20 C-10.75569447 17.81840855 -12.43588747 16.12822506 -14 13 C-14.59873168 7.73116124 -13.25400021 5.1153532 -10 1 C-6.82245725 -0.58877137 -3.46605757 -0.27508393 0 0 Z " fill="#81C3DE" transform="translate(344,359)"/>
<path d="M0 0 C1.98 0 3.96 0 6 0 C6 2.64 6 5.28 6 8 C6.99 7.34 7.98 6.68 9 6 C12.74386392 5.59157848 15.04224073 5.34567243 18.20703125 7.5078125 C20.71091099 10.98815078 20.43879144 14.1401556 20.25 18.25 C20.23195312 18.99507813 20.21390625 19.74015625 20.1953125 20.5078125 C20.14835649 22.33909701 20.07661652 24.16971649 20 26 C18.02 26 16.04 26 14 26 C13.67 21.71 13.34 17.42 13 13 C11.35 12.67 9.7 12.34 8 12 C6.12175109 13.87824891 6.60897603 17.03935276 6.4375 19.5625 C6.31181641 21.35880859 6.31181641 21.35880859 6.18359375 23.19140625 C6.12300781 24.11824219 6.06242188 25.04507812 6 26 C4.02 26 2.04 26 0 26 C0 17.42 0 8.84 0 0 Z " fill="#85CAE7" transform="translate(203,353)"/>
<path d="M0 0 C4.56944444 2.13888889 4.56944444 2.13888889 6 5 C6.04022391 7.3329866 6.04320247 9.66706666 6 12 C1.71 12 -2.58 12 -7 12 C-6.67 12.66 -6.34 13.32 -6 14 C-3.47266765 14.65555119 -3.47266765 14.65555119 -1 15 C-1 14.34 -1 13.68 -1 13 C1.31 13 3.62 13 6 13 C4.56521739 17.54347826 4.56521739 17.54347826 2.375 19.3125 C-1.14892443 20.33258339 -4.40446366 20.66214828 -8 20 C-11 18.125 -11 18.125 -13 15 C-14.0151866 9.92406701 -13.80989899 6.26546717 -11 1.875 C-7.15236938 -0.52976914 -4.42194167 -0.83972226 0 0 Z " fill="#81C3DF" transform="translate(172,359)"/>
<path d="M0 0 C2.31 0 4.62 0 7 0 C8.32 3.3 9.64 6.6 11 10 C12.65 6.7 14.3 3.4 16 0 C17.98 0 19.96 0 22 0 C21.35960068 3.81977313 20.24435165 7.13394175 18.75 10.703125 C18.3065625 11.7653125 17.863125 12.8275 17.40625 13.921875 C16.71015625 15.56929688 16.71015625 15.56929688 16 17.25 C15.5359375 18.36375 15.071875 19.4775 14.59375 20.625 C11.13839286 28.86160714 11.13839286 28.86160714 10 30 C8.00041636 30.04080783 5.99954746 30.04254356 4 30 C4.52599611 27.10702137 5.15318764 24.61655218 6.25 21.87109375 C7.25581581 16.67961736 5.81380032 13.79229479 3.625 9.125 C2.94980821 7.60708762 2.27529092 6.08887497 1.6015625 4.5703125 C1.07304687 3.39210938 0.54453125 2.21390625 0 1 C0 0.67 0 0.34 0 0 Z " fill="#82C6E1" transform="translate(389,359)"/>
<path d="M0 0 C3.0625 2.375 3.0625 2.375 5 5 C5 5.66 5 6.32 5 7 C0.45194365 7.17835515 -2.8794254 6.99785435 -7 5 C-7 7.64 -7 10.28 -7 13 C-5.05396726 13.59070014 -5.05396726 13.59070014 -3 14 C-2.67 13.67 -2.34 13.34 -2 13 C0.33297433 12.95907063 2.66705225 12.95758277 5 13 C3.56521739 17.54347826 3.56521739 17.54347826 1.375 19.3125 C-2.14892443 20.33258339 -5.40446366 20.66214828 -9 20 C-12 18.125 -12 18.125 -14 15 C-15.009303 9.953485 -14.79108983 6.27595134 -12.0625 1.875 C-7.96526802 -0.63350938 -4.68843325 -1.08520697 0 0 Z " fill="#83C7E2" transform="translate(195,359)"/>
<path d="M0 0 C3 1.8125 3 1.8125 5 4 C5 4.99 5 5.98 5 7 C1.16774573 7.08912219 -2.26562152 6.87867729 -6 6 C-6.33 8.31 -6.66 10.62 -7 13 C-5.34385343 13.38218767 -3.67542976 13.71395102 -2 14 C-1.67 13.67 -1.34 13.34 -1 13 C0.99958364 12.95919217 3.00045254 12.95745644 5 13 C4.64978759 15.53903996 4.15988127 16.82093298 2.4375 18.75 C-1.01829953 20.52220489 -4.24078214 20.6936652 -8 20 C-10.8100346 18.20636089 -12.50940468 16.98119065 -14 14 C-14.5811138 6.91041162 -14.5811138 6.91041162 -12.125 3.0625 C-8.48627785 -0.46920091 -4.91155138 -0.69494226 0 0 Z " fill="#84C9E5" transform="translate(274,359)"/>
<path d="M0 0 C6.6 0 13.2 0 20 0 C20 1.65 20 3.3 20 5 C17.69 5 15.38 5 13 5 C13 11.6 13 18.2 13 25 C11.02 25 9.04 25 7 25 C7 18.4 7 11.8 7 5 C4.69 5 2.38 5 0 5 C0 3.35 0 1.7 0 0 Z " fill="#84C8E4" transform="translate(137,354)"/>
<path d="M0 0 C1.79487005 0.0643113 3.58738778 0.20139986 5.375 0.375 C6.35210937 0.46523438 7.32921875 0.55546875 8.3359375 0.6484375 C11 1 11 1 14 2 C14 3.98 14 5.96 14 8 C10.77041509 9.0765283 8.38380002 9 5 9 C4.0925 9.20625 3.185 9.4125 2.25 9.625 C1.5075 9.74875 0.765 9.8725 0 10 C-0.66 9.34 -1.32 8.68 -2 8 C-1.42307692 1.42307692 -1.42307692 1.42307692 0 0 Z " fill="#393F42" transform="translate(268,364)"/>
<path d="M0 0 C4.95 0 9.9 0 15 0 C15 1.65 15 3.3 15 5 C10.05 5 5.1 5 0 5 C0 3.35 0 1.7 0 0 Z " fill="#87CEEB" transform="translate(118,364)"/>
<path d="M0 0 C1.1446875 0.3403125 1.1446875 0.3403125 2.3125 0.6875 C2.9375 3.5 2.9375 3.5 3.3125 6.6875 C2.3225 8.1725 2.3225 8.1725 1.3125 9.6875 C-1.6575 9.1925 -1.6575 9.1925 -4.6875 8.6875 C-6.01591008 3.25309513 -6.01591008 3.25309513 -4.5625 0.75 C-2.6875 -0.3125 -2.6875 -0.3125 0 0 Z " fill="#393E41" transform="translate(317.6875,364.3125)"/>
<path d="M0 0 C3.29714793 0.32971479 4.6226839 0.6226839 7 3 C6.67028521 6.29714793 6.3773161 7.6226839 4 10 C1.375 9.625 1.375 9.625 -1 9 C-1.625 5.625 -1.625 5.625 -2 2 C-1.34 1.34 -0.68 0.68 0 0 Z " fill="#393F42" transform="translate(290,364)"/>
<path d="M0 0 C2.89932357 2.39509338 3.50168276 4.31245243 4 8 C2.02 8 0.04 8 -2 8 C-1.34 5.36 -0.68 2.72 0 0 Z " fill="#3D464A" transform="translate(245,362)"/>
<path d="M0 0 C1.65 0 3.3 0 5 0 C5.33 0.99 5.66 1.98 6 3 C3.69 3 1.38 3 -1 3 C-0.67 2.01 -0.34 1.02 0 0 Z " fill="#383C3E" transform="translate(338,364)"/>
<path d="M0 0 C1.65 0 3.3 0 5 0 C5.33 0.99 5.66 1.98 6 3 C3.69 3 1.38 3 -1 3 C-0.67 2.01 -0.34 1.02 0 0 Z " fill="#373A3C" transform="translate(166,364)"/>
</svg>
